<svg xmlns="http://www.w3.org/2000/svg" viewBox="0 0 256 256" width="256" height="256">
  <!-- PLACEHOLDER: replace with final art -->
  <!-- Mars Phase 2: First Frost, First Rain -->
  <rect width="256" height="256" fill="#2a0f06"/>
  <!-- sky gradient stand-in -->
  <rect x="0" y="0" width="256" height="165" fill="#6b2d1a"/>
  <!-- water puddle on surface -->
  <rect x="0" y="165" width="256" height="91" fill="#7a3020"/>
  <ellipse cx="128" cy="192" rx="80" ry="18" fill="#2a6080" opacity="0.75"/>
  <!-- ice crystals on ground -->
  <polygon points="60,168 64,155 68,168" fill="#c8e8ff" opacity="0.85"/>
  <polygon points="80,172 84,160 88,172" fill="#c8e8ff" opacity="0.7"/>
  <polygon points="160,170 164,158 168,170" fill="#c8e8ff" opacity="0.8"/>
  <polygon points="188,174 192,162 196,174" fill="#c8e8ff" opacity="0.65"/>
  <!-- raindrops -->
  <line x1="100" y1="60" x2="95" y2="80" stroke="#aaccee" stroke-width="1.5" opacity="0.7"/>
  <line x1="130" y1="50" x2="125" y2="70" stroke="#aaccee" stroke-width="1.5" opacity="0.7"/>
  <line x1="160" y1="65" x2="155" y2="85" stroke="#aaccee" stroke-width="1.5" opacity="0.6"/>
  <line x1="80" y1="72" x2="75" y2="92" stroke="#aaccee" stroke-width="1.5" opacity="0.5"/>
  <!-- cloud band -->
  <ellipse cx="128" cy="48" rx="110" ry="28" fill="#4a3530" opacity="0.8"/>
  <!-- dashed border -->
  <rect x="2" y="2" width="252" height="252" fill="none" stroke="#7fbfdf" stroke-width="2" stroke-dasharray="8 4" opacity="0.6"/>
  <text x="128" y="248" font-family="monospace" font-size="9" fill="#7fbfdf" text-anchor="middle" opacity="0.7">PLACEHOLDER · ce_mars_phase_2</text>
</svg>
