<svg xmlns="http://www.w3.org/2000/svg" viewBox="0 0 1024 512" width="1024" height="512" preserveAspectRatio="none">
  <!-- PLACEHOLDER: replace with final Earth equirectangular texture -->
  <rect width="1024" height="512" fill="#4a6fb3"/>
  <ellipse cx="170" cy="205" rx="130" ry="84" fill="#2f6f4a"/>
  <ellipse cx="248" cy="265" rx="78" ry="58" fill="#8a6f45" opacity="0.7"/>
  <ellipse cx="465" cy="170" rx="190" ry="92" fill="#2f6f4a"/>
  <ellipse cx="570" cy="270" rx="112" ry="110" fill="#2f6f4a"/>
  <ellipse cx="775" cy="235" rx="145" ry="82" fill="#2f6f4a"/>
  <ellipse cx="905" cy="150" rx="72" ry="54" fill="#8a6f45" opacity="0.72"/>
  <ellipse cx="100" cy="365" rx="96" ry="42" fill="#2f6f4a" opacity="0.86"/>
  <ellipse cx="950" cy="395" rx="130" ry="46" fill="#2f6f4a" opacity="0.82"/>
  <ellipse cx="275" cy="128" rx="130" ry="18" fill="#eef7ff" opacity="0.5" transform="rotate(-8 275 128)"/>
  <ellipse cx="590" cy="220" rx="170" ry="22" fill="#eef7ff" opacity="0.48" transform="rotate(8 590 220)"/>
  <ellipse cx="820" cy="315" rx="150" ry="18" fill="#eef7ff" opacity="0.42" transform="rotate(-12 820 315)"/>
  <rect y="0" width="1024" height="58" fill="#eef7ff" opacity="0.86"/>
  <rect y="454" width="1024" height="58" fill="#eef7ff" opacity="0.78"/>
  <rect x="2" y="2" width="1020" height="508" fill="none" stroke="#ffffff" stroke-opacity="0.32" stroke-dasharray="18 12"/>
  <text x="1004" y="492" fill="#ffffff" fill-opacity="0.24" font-family="monospace" font-size="28" text-anchor="end">PLACEHOLDER</text>
</svg>
