<svg xmlns="http://www.w3.org/2000/svg" viewBox="0 0 1024 512" width="1024" height="512" preserveAspectRatio="none">
  <!-- PLACEHOLDER: replace with final Earth night-side equirectangular texture -->
  <rect width="1024" height="512" fill="#101a2d"/>
  <ellipse cx="170" cy="205" rx="130" ry="84" fill="#172c2e"/>
  <ellipse cx="465" cy="170" rx="190" ry="92" fill="#172c2e"/>
  <ellipse cx="570" cy="270" rx="112" ry="110" fill="#172c2e"/>
  <ellipse cx="775" cy="235" rx="145" ry="82" fill="#172c2e"/>
  <g fill="#ffd66e" opacity="0.82">
    <circle cx="456" cy="168" r="4"/><circle cx="482" cy="174" r="2.8"/><circle cx="520" cy="188" r="3.4"/>
    <circle cx="585" cy="262" r="3"/><circle cx="612" cy="288" r="2.4"/><circle cx="760" cy="236" r="3.5"/>
    <circle cx="805" cy="230" r="2.8"/><circle cx="840" cy="252" r="2.4"/><circle cx="185" cy="214" r="3.2"/>
    <circle cx="224" cy="252" r="2.5"/><circle cx="935" cy="398" r="2.8"/><circle cx="972" cy="384" r="2.3"/>
  </g>
  <ellipse cx="590" cy="220" rx="170" ry="22" fill="#d7eaff" opacity="0.16" transform="rotate(8 590 220)"/>
  <rect y="0" width="1024" height="50" fill="#d7eaff" opacity="0.35"/>
  <rect y="462" width="1024" height="50" fill="#d7eaff" opacity="0.28"/>
  <rect x="2" y="2" width="1020" height="508" fill="none" stroke="#ffffff" stroke-opacity="0.3" stroke-dasharray="18 12"/>
  <text x="1004" y="492" fill="#ffffff" fill-opacity="0.24" font-family="monospace" font-size="28" text-anchor="end">PLACEHOLDER</text>
</svg>
