<!-- PLACEHOLDER: Research Hub vignette — 320×240. Replace with final artwork. -->
<svg xmlns="http://www.w3.org/2000/svg" viewBox="0 0 320 240" width="320" height="240">
  <!-- Background -->
  <rect width="320" height="240" fill="#0d1117"/>

  <!-- Ambient glow from screens -->
  <ellipse cx="160" cy="120" rx="140" ry="90" fill="#1a2a3a" opacity="0.6"/>

  <!-- Desk surface -->
  <rect x="20" y="150" width="280" height="12" rx="2" fill="#1e2530"/>
  <rect x="40" y="162" width="240" height="6" rx="1" fill="#161c26"/>

  <!-- Workstation monitor – left -->
  <rect x="40" y="95" width="80" height="54" rx="3" fill="#0e1820" stroke="#2a3a4a" stroke-width="1.5"/>
  <rect x="43" y="98" width="74" height="48" rx="2" fill="#0c2236"/>
  <!-- Data lines on left monitor -->
  <rect x="48" y="103" width="40" height="2" rx="1" fill="#1a6a9a" opacity="0.9"/>
  <rect x="48" y="108" width="55" height="2" rx="1" fill="#1a4a7a" opacity="0.7"/>
  <rect x="48" y="113" width="30" height="2" rx="1" fill="#1a6a9a" opacity="0.9"/>
  <rect x="48" y="118" width="48" height="2" rx="1" fill="#1a4a7a" opacity="0.6"/>
  <rect x="48" y="123" width="36" height="2" rx="1" fill="#2a7aaa" opacity="0.8"/>
  <rect x="48" y="128" width="52" height="2" rx="1" fill="#1a4a7a" opacity="0.5"/>
  <rect x="48" y="133" width="44" height="2" rx="1" fill="#1a6a9a" opacity="0.9"/>
  <!-- Monitor stand -->
  <rect x="75" y="149" width="10" height="6" rx="1" fill="#1e2530"/>

  <!-- Workstation monitor – centre (main) -->
  <rect x="130" y="80" width="100" height="68" rx="3" fill="#0e1820" stroke="#3a5a3a" stroke-width="1.5"/>
  <rect x="133" y="83" width="94" height="62" rx="2" fill="#0a1f12"/>
  <!-- Solar system diagram on main monitor -->
  <circle cx="180" cy="114" r="24" fill="none" stroke="#1a4a2a" stroke-width="1" opacity="0.6"/>
  <circle cx="180" cy="114" r="14" fill="none" stroke="#1a4a2a" stroke-width="1" opacity="0.4"/>
  <circle cx="180" cy="114" r="5" fill="#c8a030" opacity="0.9"/>
  <!-- planet dots on orbits -->
  <circle cx="204" cy="114" r="3" fill="#3a7ab8" opacity="0.8"/>
  <circle cx="180" cy="90" r="2.5" fill="#b84a2a" opacity="0.8"/>
  <circle cx="156" cy="128" r="2" fill="#c8a030" opacity="0.7"/>
  <!-- Screen glow -->
  <rect x="133" y="83" width="94" height="62" rx="2" fill="#00ff88" opacity="0.03"/>
  <!-- Monitor stand centre -->
  <rect x="175" y="148" width="10" height="6" rx="1" fill="#1e2530"/>

  <!-- Workstation monitor – right -->
  <rect x="240" y="95" width="80" height="54" rx="3" fill="#0e1820" stroke="#4a3a2a" stroke-width="1.5"/>
  <rect x="243" y="98" width="74" height="48" rx="2" fill="#1f1608"/>
  <!-- Tech tree nodes on right monitor -->
  <circle cx="272" cy="112" r="5" fill="#c8a030" opacity="0.7"/>
  <circle cx="292" cy="105" r="5" fill="#c8a030" opacity="0.4"/>
  <circle cx="292" cy="119" r="5" fill="#c8a030" opacity="0.4"/>
  <circle cx="310" cy="105" r="4" fill="#c8a030" opacity="0.25"/>
  <circle cx="310" cy="119" r="4" fill="#c8a030" opacity="0.25"/>
  <line x1="277" y1="112" x2="287" y2="105" stroke="#c8a030" stroke-width="1" opacity="0.4"/>
  <line x1="277" y1="112" x2="287" y2="119" stroke="#c8a030" stroke-width="1" opacity="0.4"/>
  <line x1="297" y1="105" x2="306" y2="105" stroke="#c8a030" stroke-width="1" opacity="0.25"/>
  <line x1="297" y1="119" x2="306" y2="119" stroke="#c8a030" stroke-width="1" opacity="0.25"/>
  <!-- Monitor stand right -->
  <rect x="275" y="149" width="10" height="6" rx="1" fill="#1e2530"/>

  <!-- Keyboard hints -->
  <rect x="55" y="162" width="60" height="8" rx="2" fill="#1a2030" opacity="0.6"/>
  <rect x="155" y="162" width="50" height="8" rx="2" fill="#1a2030" opacity="0.6"/>
  <rect x="255" y="162" width="50" height="8" rx="2" fill="#1a2030" opacity="0.6"/>

  <!-- Human silhouette (seated researcher) -->
  <ellipse cx="180" cy="73" rx="9" ry="9" fill="#1a2530" opacity="0.7"/>
  <path d="M 165 170 Q 168 150 172 145 L 188 145 Q 192 150 195 170 Z" fill="#1a2530" opacity="0.7"/>
  <!-- Arms reaching forward -->
  <path d="M 172 148 Q 162 158 155 162" stroke="#1a2530" stroke-width="4" fill="none" opacity="0.6"/>
  <path d="M 188 148 Q 198 158 205 162" stroke="#1a2530" stroke-width="4" fill="none" opacity="0.6"/>

  <!-- Ambient particles / stars -->
  <circle cx="30" cy="20" r="1" fill="#ffffff" opacity="0.3"/>
  <circle cx="290" cy="30" r="1" fill="#ffffff" opacity="0.25"/>
  <circle cx="50" cy="65" r="0.8" fill="#ffffff" opacity="0.2"/>
  <circle cx="310" cy="55" r="0.8" fill="#ffffff" opacity="0.2"/>
  <circle cx="260" cy="15" r="1" fill="#ffffff" opacity="0.3"/>
  <circle cx="15" cy="180" r="0.8" fill="#ffffff" opacity="0.15"/>

  <!-- Dashed placeholder border indicator -->
  <rect x="2" y="2" width="316" height="236" rx="4" fill="none"
    stroke="#444" stroke-width="1" stroke-dasharray="6 4" opacity="0.5"/>

  <!-- PLACEHOLDER label -->
  <text x="160" y="228" text-anchor="middle" font-family="monospace"
    font-size="9" fill="#555" letter-spacing="1">PLACEHOLDER</text>
</svg>
